<svg width="550" height="550" viewBox="0 0 550 550" fill="none" xmlns="http://www.w3.org/2000/svg">
<path d="M186.308 400.973C194.508 395.676 202.588 397.121 209.811 402.578C215.59 406.939 221.248 406.324 227.401 404.571C262.822 394.459 277.737 360.282 260.896 327.443C248.964 304.167 228.565 290.737 204.714 283.086C187.873 277.682 170.123 274.86 152.613 271.85C133.98 268.653 116.042 263.77 99.9899 253.604C67.6321 233.125 52.5702 203.884 56.6902 165.507C59.1782 142.339 65.7059 120.388 79.1493 97.9153C80.701 105.353 82.0654 110.569 82.868 115.88C88.3389 152.184 104.484 183.445 128.107 211.054C132.976 216.739 138.715 222.063 145.002 226.075C162.244 237.071 179.968 247.304 197.531 257.805C213.168 267.155 229.3 275.769 244.376 285.949C257.833 295.045 267.932 307.592 273.751 322.721C281.629 312.902 288.211 301.599 297.641 293.72C311.191 282.404 326.494 273.04 341.65 263.851C354.571 256.025 368.55 249.966 381.726 242.542C427.674 216.672 454.012 176.582 465.556 125.966C467.242 118.609 468.593 111.171 470.198 103.801C470.358 103.052 471.281 102.45 472.632 100.871C487.935 129.256 496.483 158.711 493.379 190.628C491.052 214.532 478.826 233.259 459.51 247.331C441.519 260.453 421.213 267.824 399.369 271.569C384.468 274.11 369.513 276.679 354.839 280.29C332.741 285.748 312.823 295.821 298.885 314.347C292.598 322.694 286.886 332.432 284.305 342.424C276.787 371.545 297.895 401.401 328.3 405.963C332.112 406.538 336.954 404.678 340.379 402.485C348.284 397.428 355.962 396.546 364.229 400.88C347.375 420.275 329.062 438.574 314.161 459.308C299.5 479.694 288.291 502.554 275.168 525C261.845 502.273 250.382 479.105 235.521 458.372C220.927 437.959 202.869 420.008 186.308 400.973ZM296.384 445.972C288.799 440.955 281.857 436.367 274.928 431.793C267.718 436.769 260.896 441.464 253.886 446.306C261.016 458.198 267.771 469.447 275.275 481.968C282.619 469.461 289.254 458.131 296.384 445.972ZM310.83 423.633C295.273 417.078 283.101 407.006 274.794 390.392C267.343 407.795 254.836 416.476 238.075 423.566C254.127 429.05 264.842 422.362 275.249 414.858C285.95 423.753 297.052 428.716 310.83 423.633Z" fill="#66CC9A"/>
<path d="M191.231 369.11C199.471 367.264 206.975 366.221 214.065 363.867C229.581 358.744 236.256 346.598 232.457 331.843C228.765 317.531 214.439 307.699 200.006 310.454C193.558 311.685 187.432 314.681 181.212 317.022C163.354 323.751 145.724 331.175 127.626 337.207C93.7832 348.484 58.6699 332.619 41.1199 308.06C18.2327 276.023 13.3369 240.669 25.3624 200.794C28.6129 204.62 30.9538 206.907 32.7462 209.569C45.494 228.403 59.1648 246.328 76.8352 261.042C99.3612 279.809 124.991 289.266 154.245 287.942C174.163 287.046 193.251 289.574 211.322 298.295C224.445 304.622 235.534 313.21 242.677 326.199C251.813 342.812 249.526 364.75 237.313 378.621C227.869 389.336 213.262 392.559 200.956 386.647C193.545 383.089 191.659 379.825 191.231 369.11Z" fill="#66CC9A"/>
<path d="M523.891 201.128C540.745 243.652 527.556 297.158 494.235 323.283C475.602 337.89 454.24 343.762 430.296 339C407.77 334.519 387.29 324.848 366.624 315.524C357.608 311.458 348.605 308.14 338.332 311.284C325.411 315.243 316.85 325.717 316.876 338.559C316.903 351.4 324.18 360.737 337.663 364.429C344.459 366.288 351.481 367.291 358.29 368.656C358.424 380.989 354.424 386.741 343.629 388.707C330.239 391.142 319.097 387.169 310.737 375.999C295.568 355.721 301.36 323.871 323.953 307.418C344.084 292.744 367.052 287.046 391.852 287.648C401.148 287.875 410.632 288.036 419.742 286.511C449.13 281.615 472.525 265.978 491.547 243.639C499.613 234.182 506.729 223.909 514.26 213.997C517.203 210.158 520.052 206.278 523.891 201.128Z" fill="#66CC9A"/>
<path d="M362.343 25.2274C396.346 38.7511 423.3 59.5916 434.121 95.4808C446.254 135.704 440.93 173.345 410.325 204.111C398.888 215.602 385.083 225.166 371.172 233.673C351 245.993 327.872 251.357 304.57 257.47C338.386 228.831 361.701 193.758 373.379 151.301C385.257 108.122 383.17 66.1194 362.343 25.2274Z" fill="#66CC9A"/>
<path d="M247.492 259.423C212.446 248.508 179.861 238.315 152.626 216.351C111.24 182.976 99.0401 128.16 122.181 80.4991C133.685 56.8227 161.12 33.5208 187.659 25C149.122 116.856 176.624 192.072 247.492 259.423Z" fill="#66CC9A"/>
</svg>
