<svg width="550" height="550" viewBox="0 0 550 550" fill="none" xmlns="http://www.w3.org/2000/svg">
<path d="M211.413 411.267C217.067 412.969 222.709 414.67 229.28 416.647C241.662 401.934 250.864 385.245 257.553 367.378C264.163 349.695 269.215 331.422 275.904 310.361C283.928 350.415 296.781 385.782 320.512 416.673C327.031 414.67 332.699 412.943 339.335 410.914C317.554 449.514 296.376 487.015 274.961 524.974C275.564 524.974 275.118 525.04 274.7 524.961C274.32 524.883 273.862 524.739 273.626 524.451C273.063 523.796 272.501 523.116 272.134 522.343C254.215 484.306 233.664 447.721 211.413 411.267ZM298.116 426.857C294.373 417.471 289.412 406.424 285.538 394.997C281.676 383.635 278.914 371.92 275.577 360.048C267.487 384.081 259.804 406.921 251.963 430.234C259.424 437.315 267.409 444.907 275.197 452.302C282.854 443.794 289.805 436.085 298.116 426.857Z" fill="#84E0F1"/>
<path d="M191.333 150.92C184.723 156.98 180.325 160.998 175.495 165.423C190.653 202.4 215.352 231.72 244.777 258.161C207.473 245.765 169.723 239.639 130.141 244.496C128.57 250.778 127.065 256.8 125.468 263.187C102.902 225.058 80.8723 187.858 59 150.92C101.946 150.92 145.18 150.92 191.333 150.92ZM129.565 217.924C155.024 223.304 179.2 228.409 201.399 233.108C185.954 215.791 169.33 197.164 152.523 178.342C142.693 181.182 132.353 184.167 121.79 187.216C124.447 197.714 127.078 208.094 129.565 217.924Z" fill="#84E0F1"/>
<path d="M491.158 150.907C469.103 188.159 447.073 225.372 424.56 263.41C423.081 256.996 421.719 251.158 420.201 244.548C381.025 239.613 343.222 245.49 305.708 258.109C334.583 231.76 359.244 202.662 375.108 164.624C370.344 161.051 365.265 157.242 360.186 153.433C360.644 152.595 361.089 151.757 361.548 150.92C404.729 150.907 447.924 150.907 491.158 150.907ZM397.753 178.316C380.383 197.701 363.838 216.157 348.655 233.108C371.325 228.33 395.737 223.186 420.515 217.963C422.989 208.303 425.659 197.884 428.382 187.243C418.067 184.232 407.74 181.222 397.753 178.316Z" fill="#84E0F1"/>
<path d="M274.386 25C296.048 63.4827 317.109 100.892 338.785 139.414C333 137.896 327.162 136.351 320.499 134.597C296.716 165.187 283.888 200.751 275.105 238.749C266.336 200.986 253.586 165.462 229.541 134.427C223.416 136.273 217.735 137.987 209.214 140.566C221.714 120.081 233.363 102.136 243.835 83.5356C254.49 64.5953 264.006 45.0136 274.386 25ZM252.278 121.887C259.948 144.637 267.579 167.308 275.04 189.442C282.579 167.19 290.263 144.493 298.221 121.024C290.97 114.099 282.972 106.455 274.687 98.5491C266.558 107.005 259.11 114.767 252.278 121.887Z" fill="#84E0F1"/>
<path d="M305.695 293.319C342.934 304.798 380.514 312.39 420.083 306.552C421.601 300.23 422.989 294.418 424.573 287.782C447.152 325.898 469.273 363.229 491.145 400.141C448.553 400.141 405.161 400.141 359.165 400.141C365.33 394.382 369.611 390.377 374.729 385.586C359.636 349.224 335.303 319.799 305.695 293.319ZM420.45 332.927C395.711 327.875 371.613 322.94 349.152 318.359C364.597 335.702 381.155 354.315 397.635 372.824C407.701 369.905 418.002 366.92 428.369 363.923C425.502 352.718 422.845 342.299 420.45 332.927Z" fill="#84E0F1"/>
<path d="M125.677 287.664C127.052 293.882 128.269 299.34 129.8 306.29C168.977 312.901 206.818 304.628 244.738 293.149C215.536 319.341 190.875 348.556 174.906 386.856C179.475 390.507 184.383 394.408 191.491 400.076C145.128 400.076 101.92 400.076 59.0917 400.076C80.7677 363.478 102.823 326.239 125.677 287.664ZM129.604 332.94C127.196 342.731 124.565 353.438 121.947 364.106C133.256 367.3 143.597 370.219 152.55 372.745C169.527 353.687 185.823 335.414 200.98 318.385C178.401 322.993 154.291 327.901 129.604 332.94Z" fill="#84E0F1"/>
<path d="M313.13 341.802C305.852 338.569 298.483 335.964 291.886 332.05C288.993 330.336 286.82 326.199 285.813 322.744C282.318 310.741 279.49 298.555 275.708 283.724C273.836 288.188 272.723 290.19 272.16 292.324C270.524 298.633 268.233 304.942 267.775 311.369C266.401 330.689 253.665 337.495 236.61 341.121C235.811 334.812 235.379 328.804 234.24 322.927C233.036 316.696 234.947 311.997 239.489 307.822C245.262 302.534 250.825 296.997 256.44 291.539C259.804 288.253 263.102 284.889 265.603 279.719C262.147 280.57 258.665 281.368 255.223 282.311C251.453 283.345 247.736 284.628 243.953 285.609C217.8 292.429 224.777 296.107 198.428 275.203C205.588 270.007 212.185 264.719 219.345 260.347C221.452 259.064 225.274 259.836 228.075 260.556C237.343 262.938 246.492 265.74 255.707 268.344C259.765 269.496 263.835 270.583 270.747 272.481C260.066 262.323 251.898 253.881 242.997 246.289C235.274 239.692 231.924 232.336 234.685 222.296C235.706 218.579 235.785 214.599 236.282 210.751C255.55 212.597 262.487 218.278 266.951 235.83C269.385 245.425 271.65 255.072 276.022 264.98C276.715 262.978 277.553 261.014 278.064 258.959C279.647 252.637 281.925 246.341 282.475 239.914C284.085 221.183 295.63 212.976 312.58 209.927C313.104 210.542 313.994 211.105 314.086 211.772C317.685 236.812 317.672 236.812 299.059 254.339C293.391 259.666 287.763 265.033 282.946 271.957C293.627 268.75 304.491 266.041 314.949 262.205C325.447 258.344 334.296 259.496 342.293 267.467C344.976 270.138 348.17 272.284 352.306 275.609C345.421 280.517 339.885 285.504 333.445 288.646C329.649 290.492 324.177 290.465 319.897 289.457C308.13 286.683 296.598 282.939 282.462 278.855C284.962 282.442 285.799 284.13 287.069 285.361C291.454 289.588 296.192 293.476 300.446 297.835C319.007 316.827 319.269 309.222 313.13 341.802Z" fill="#84E0F1"/>
</svg>
