<svg width="550" height="550" viewBox="0 0 550 550" fill="none" xmlns="http://www.w3.org/2000/svg">
<path d="M67.8179 304.842C64.5516 308.236 61.1156 311.742 57.7362 315.306C51.6702 321.711 44.9538 324.709 36.4274 319.873C28.0283 315.122 19.5444 310.512 10 305.252C18.8091 294.718 27.7597 287.747 38.2939 284.042C42.7055 282.487 49.0967 285.004 54.0598 286.984C58.118 288.595 61.3984 292.159 67.6907 296.839C65.1596 274.06 66.913 254.434 70.7732 234.708C74.7606 214.319 84.7999 197.252 98.2045 177.852C91.2477 178.601 87.4017 178.828 83.6263 179.464C60.4228 183.409 46.8768 176.381 37.4455 154.776C34.0661 147.055 31.5916 138.925 28.9191 130.908C28.0708 128.362 27.9294 125.577 27.3638 122.24C30.3756 121.533 32.5814 120.501 34.7165 120.614C44.572 121.137 54.3992 121.957 64.2405 122.706C82.5234 124.092 94.3019 134.683 97.8652 152.839C98.9398 158.339 100.085 163.811 101.23 169.453C106.83 172.111 109.842 167.742 113.235 164.928C132.974 148.582 155.74 138.67 180.951 135.644C211.352 131.996 237.44 142.658 258.961 163.967C268.477 173.384 267.911 181.062 259.031 191.03C253.842 196.842 249.939 197.351 245.344 190.776C230.073 168.958 207.209 165.649 183.864 166.851C132.522 169.481 97.6248 207.857 97.0592 259.397C96.5219 308.108 116.685 345.664 157.564 371.54C173.754 381.791 191.16 390.388 208.722 398.095C234.272 409.308 257.32 422.967 271.079 448.475C271.729 449.691 272.761 450.709 274.274 452.703C276.961 449.776 279.379 447.754 281.005 445.237C293.42 426.12 310.359 412.616 331.003 403.128C349.329 394.701 367.626 386.062 385.329 376.418C422.715 356.028 446.116 324.511 452.804 282.586C459.054 243.39 449.269 207.701 416.168 183.409C387.577 162.425 354.871 160.658 322.576 175.689C314.092 179.634 307.715 188.103 299.938 194.862C283.776 189.051 279.76 176.099 292.274 164.023C318.956 138.303 350.29 128.575 386.743 139.01C405.492 144.383 422.955 152.202 437.703 165.366C440.46 167.827 443.868 169.58 448.393 172.606C449.807 165.55 450.867 159.399 452.281 153.348C456.65 134.626 465.544 125.761 484.591 123.216C497.034 121.561 509.717 121.703 524.338 120.939C519.078 138.02 515.698 154.026 505.843 167.445C496.694 179.902 483.488 181.967 469.136 179.817C464.809 179.167 460.51 178.319 455.236 178.757C479.119 214.121 488.522 252.199 482.413 295.991C486.74 293.587 488.861 292.837 490.445 291.466C504.259 279.588 509.024 281.398 523.051 289.854C528.947 293.403 533.882 298.536 540.033 303.598C535.268 307.444 531.959 310.852 528 313.199C504.853 326.858 501.587 325.119 486.966 309.013C485.538 307.43 483.516 306.383 481.565 304.927C476.941 317.582 473.208 329.502 468.302 340.913C455.137 371.554 431.552 392.905 403.81 409.859C385.385 421.114 366.523 431.832 347.095 441.221C316.255 456.125 295.47 479.71 282.249 510.705C280.496 514.805 278.346 518.75 275.292 525C271.969 518.736 269.41 514.947 267.841 510.775C255.2 477.334 231.784 454.711 199.941 438.902C176.455 427.237 153.605 413.861 131.829 399.226C99.2792 377.337 78.9602 346.385 70.8439 307.755C70.7166 307.048 69.6278 306.539 67.8179 304.842Z" fill="#99BB44"/>
<path d="M241.357 360.723C226.185 351.461 211.267 341.747 195.756 333.079C180.117 324.355 163.715 317.243 145.022 319.717C139.139 320.495 133.314 321.711 126.004 322.969C130.557 308.646 141.359 304.489 152.077 301.01C154.34 294.011 148.387 291.367 146.054 287.167C141.077 278.245 133.837 270.581 133.229 259.453C131.928 235.528 144.187 219.055 163.078 207.404C177.529 198.496 194.186 196.616 210.73 201.437C222.692 204.916 232.434 211.604 236.365 225.744C231.713 226.012 228.093 226.578 224.502 226.38C203.193 225.235 191.98 239.516 187.696 256.257C182.096 278.146 188.219 297.164 202.415 313.665C212.2 325.034 223.314 335.229 233.58 346.187C237.27 350.132 240.197 354.812 243.478 359.139C242.771 359.677 242.064 360.2 241.357 360.723Z" fill="#99BB44"/>
<path d="M315.605 226.126C315.124 214.517 323.226 209.596 330.735 205.396C363.709 186.986 411.459 210.883 417.129 248.254C419.01 260.599 415.418 271.472 408.391 281.483C404.403 287.153 400.501 292.88 395.792 299.695C407.557 304.814 419.887 307.868 423.803 322.291C417.327 321.315 411.926 320.368 406.496 319.689C389.401 317.568 373.833 322.786 359.326 330.888C344.578 339.131 330.438 348.478 316.001 357.301C313.428 358.871 310.741 360.242 308.111 361.699C307.404 360.893 306.697 360.101 305.99 359.295C314.573 349.722 322.873 339.881 331.809 330.647C343.249 318.812 355.465 307.84 361.305 291.607C366.862 276.152 366.608 261.433 359.425 246.657C352.241 231.866 340.675 224.98 324.259 226.083C321.53 226.281 318.758 226.126 315.605 226.126Z" fill="#99BB44"/>
<path d="M275.222 160.517C262.029 146.56 248.257 136.026 238.727 121.264C233.042 112.455 231.36 103.066 233.99 93.0835C235.531 87.2296 237.016 81.0363 240.126 75.9884C250.816 58.5822 262.213 41.6143 273.016 25C275.83 25.8201 277.102 25.7918 277.512 26.3716C290.196 44.2585 304.138 61.2264 313.06 81.6867C321.247 100.45 317.457 116.556 304.76 131.035C296.177 140.82 286.321 149.53 275.222 160.517Z" fill="#99BB44"/>
</svg>
