<svg width="550" height="550" viewBox="0 0 550 550" fill="none" xmlns="http://www.w3.org/2000/svg">
<path d="M162.965 329.734C167.533 334.654 169.83 337.121 172.14 339.587C193.524 362.428 227.181 360.5 245.361 334.405C262.032 310.462 264.959 284.118 252.857 257.341C231.079 209.128 172.258 190.091 123.703 214.769C98.3418 227.665 81.3952 247.869 70.5525 273.78C59.2241 300.846 56.3494 329.407 55.2599 358.282C54.8923 368.096 55.2073 377.935 55.2073 389.244C0.665777 302.551 19.2532 155.718 116.916 82.0002C100.783 112.7 80.6995 141.917 79.0324 181.013C83.8761 176.5 86.9478 173.692 89.9669 170.832C116.365 145.721 145.756 126.16 182.484 119.43C217.073 113.093 256.545 123.707 284.938 148.319C279.097 149.801 273.912 150.943 268.832 152.438C244.915 159.484 232.97 179.15 237.498 203.827C243.248 235.235 273.177 259.978 307.91 261.973C365.34 265.252 399.837 219.164 404.365 177.706C408.33 141.353 395.531 110.902 371.299 84.5716C353.014 64.7481 331.118 49.6739 307.569 36.8694C300.704 33.1303 293.707 29.6274 286.198 25.7178C369.606 16.5736 505.992 95.3558 525 229.896C506.833 200.141 489.728 169.467 457.463 148.424C460.508 163.328 463.593 175.87 465.562 188.583C470.524 220.751 467.807 252.028 453.748 281.914C439.361 312.482 415.103 331.584 382.155 344.454C383.73 339.062 384.688 335.546 385.791 332.083C396.004 300.019 376.392 271.629 342.657 269.687C303.027 267.417 267.335 296.332 259.656 336.937C250.441 385.584 281.958 434.323 331.564 448.098C354.93 454.592 378.296 453.726 401.386 447.022C429.227 438.941 455.481 427.238 479.503 410.786C482.325 408.858 485.292 407.152 488.757 405.001C475.762 442.798 413.83 492.009 355.534 512.213C298.262 532.062 225.159 527.274 193.012 508.343C220.919 505.797 248.735 508.172 275.251 499.408C281.42 497.375 287.432 494.895 296.332 491.576C290.478 489.556 287.17 488.322 283.823 487.273C261.245 480.188 239.218 471.844 219.58 458.305C191.135 438.691 171.55 412.781 164.172 378.618C162.532 370.995 162.006 363.045 161.77 355.226C161.534 347.879 162.4 340.519 162.965 329.734Z" fill="#AA4EFF"/>
</svg>
