<svg width="550" height="550" viewBox="0 0 550 550" fill="none" xmlns="http://www.w3.org/2000/svg">
<path d="M508.034 274.313C495.342 298.507 478.094 319.668 458.32 340.965C419.056 228.14 350.72 135.498 273.654 46.8791C230.23 97.3732 185.778 145.502 167.539 210.446C168.282 211.09 169.013 211.734 169.756 212.378C204.054 183.651 238.365 154.913 273.691 125.332C313.821 163.184 346.621 205.877 372.178 255.777C347.389 283.884 317.66 305.652 287.286 328.881C280.699 320.845 274.818 313.663 270.521 308.425C286.742 291.128 301.848 274.821 317.201 258.736C326.364 249.14 326.674 249.239 321.015 237.637C309.958 215.003 293.453 196.9 272.997 180.222C265.308 184.852 257.309 188.976 250.066 194.151C217.08 217.653 186.818 244.323 158.946 273.694C156.99 275.749 155.182 277.941 152.879 280.553C151.121 278.523 149.895 277.507 149.164 276.22C133.798 249.227 122.072 220.822 114.903 190.523C113.219 183.391 114.544 178.055 118.828 172.309C146.106 135.77 178.584 104.22 212.833 74.4168C229.598 59.8184 247.094 46.0495 264.318 31.9711C267.45 29.408 270.88 27.204 273.951 25C344.628 66.4056 479.889 210.446 508.034 274.313Z" fill="#FFCC00"/>
<path d="M273.27 525C244.865 500.731 216.795 477.775 189.901 453.506C147.889 415.604 108.935 374.731 75.5159 328.942C64.8426 314.319 55.5932 298.668 45.4275 283.674C41.2423 277.507 40.5242 272.01 45.3284 265.806C59.1716 247.902 72.7547 229.799 86.5112 211.833C87.4522 210.607 88.9628 209.815 91.0306 208.18C129.762 319.804 197.95 412.199 273.852 499.728C308.645 477.032 374.951 375.932 380.709 335.393C344.33 364.07 311.109 393.738 275.325 422.885C235.381 385.392 202.717 342.674 176.789 292.49C201.38 264.605 231.257 242.887 261.569 219.485C267.933 227.1 273.889 234.232 279.436 240.869C271.734 249.202 264.999 256.879 257.842 264.147C248.295 273.83 238.575 283.364 228.632 292.638C224.361 296.625 223.519 300.587 225.797 305.813C236.111 329.401 252.53 348.147 271.895 364.64C275.375 367.599 278.817 366.757 282.123 364.665C290.134 359.613 298.356 354.821 305.934 349.187C337.075 325.995 366.197 300.488 392.546 271.911C393.636 270.722 394.899 269.694 395.988 268.679C396.967 269.1 397.932 269.199 398.23 269.694C415.156 297.789 427.129 327.865 434.633 359.799C436.131 366.188 434.063 370.744 430.448 375.66C409.584 404.002 385.501 429.46 359.424 452.912C335.836 474.122 311.208 494.169 286.989 514.661C283.213 517.806 279.151 520.567 273.27 525Z" fill="#FFCC00"/>
</svg>
