<svg width="550" height="550" viewBox="0 0 550 550" fill="none" xmlns="http://www.w3.org/2000/svg">
<path d="M133.525 467.358C136.377 468.521 139.343 469.472 142.068 470.891C179.972 490.616 220.416 500.295 262.946 502.977C344.103 508.1 410.431 446.043 409.721 365.013C409.154 300.218 358.521 243.469 293.825 234.358C274.241 231.605 255.226 232.741 236.38 238.289C227.142 241.014 217.748 242.901 208.666 238.786C196.561 233.294 189.565 223.658 188.529 210.205C187.493 196.696 192.431 185.442 204.593 179.567C215.534 174.288 227.327 169.974 239.233 167.576C358.805 143.509 463.462 244.845 447.71 359.976C441.182 407.714 418.066 445.93 380.517 475.716C376.557 478.852 372.485 481.861 369.277 486.473C371.647 485.437 374.159 484.656 376.359 483.351C440.615 444.965 474.644 387.988 477.795 313.657C482.705 197.888 391.997 121.399 313.891 108.273C233.202 94.7063 166.732 119.228 115.077 182.746C99.7509 201.606 81.8421 205.877 63.3798 193.787C51.5446 186.038 46.5637 174.09 51.1047 160.722C53.801 152.789 57.7886 145.027 62.5142 138.088C104.661 76.1304 163.439 39.8871 237.047 28.0661C349.623 9.97276 479.299 71.9725 517.103 213.668C555.688 358.287 459.716 486.53 333.871 517.636C287.382 529.13 241.134 526.988 195.482 512.428C170.067 504.325 149.774 488.914 133.525 467.358Z" fill="#279BE4"/>
<path d="M342.57 448.782C324.917 475.475 289.227 489.623 256.12 483.067C214.966 474.921 184.853 439.118 183.434 396.702C182.129 357.308 211.064 319.205 250.983 309.456C281.252 302.077 309.051 308.08 333.02 328.756C347.282 341.059 354.718 357.152 357.598 375.344C359.656 388.329 354.987 399.682 345.99 408.906C334.084 421.11 313.011 419.336 302.439 404.961C298.352 399.398 295.882 392.501 293.356 385.945C284.359 362.643 262.435 354.924 240.723 367.639C211.277 384.895 204.99 420.755 226.688 447.817C246.3 472.282 281.138 480.484 311.464 466.833C322.348 461.951 332.239 454.87 342.57 448.782Z" fill="#279BE4"/>
<path d="M58.6258 245.186C76.1941 245.158 91.9459 260.966 92.1871 278.847C92.4284 296.67 75.4136 313.43 57.4196 313.089C39.6952 312.749 24.0569 296.855 24.0002 279.102C23.9434 260.611 39.6526 245.214 58.6258 245.186Z" fill="#279BE4"/>
<path d="M126.543 389.79C126.316 402.718 115.574 413.163 102.83 412.865C90.6829 412.581 79.0748 400.902 79.1316 389.024C79.2025 376.721 90.3991 365.467 102.745 365.297C116.226 365.113 126.784 375.969 126.543 389.79Z" fill="#279BE4"/>
</svg>
