<svg width="550" height="550" viewBox="0 0 550 550" fill="none" xmlns="http://www.w3.org/2000/svg">
<path d="M278.844 525C274.378 521.417 269.966 517.807 265.487 514.277C235.727 490.894 205.591 468.099 171.9 450.384C156.163 442.108 140.895 432.856 125.828 423.39C113.781 415.836 101.669 408.109 90.8124 399.004C72.429 383.589 64.3805 363.788 69.5278 339.522C73.8195 319.267 81.7343 300.523 92.6173 283.008C97.0694 275.842 101.856 268.837 106.843 262.031C129.959 230.559 157.701 202.429 175.523 164.687C177.007 168.911 178.063 170.837 178.33 172.855C181.472 196.025 193.893 213.794 212.824 226.067C228.761 236.402 246.436 244.076 263.335 252.927C265.528 254.076 267.76 255.159 269.806 258.261C265.621 258.769 261.436 259.25 257.252 259.799C213.052 265.588 171.966 295.148 164.399 347.277C161.404 367.946 167.514 385.902 179.026 402.547C181.285 405.809 183.865 408.857 186.874 412.735C185.029 412.975 183.638 413.617 183.037 413.176C168.771 402.64 153.075 393.496 140.721 381.035C113.835 353.895 110.506 323.144 128.515 289.426C132.593 281.778 137.7 274.679 142.887 266.47C103.607 283.637 84.0607 324.829 96.5613 362.023C101.254 375.995 109.985 387.145 121.416 396.023C129.117 401.999 137.326 407.494 145.829 412.267C189.601 436.88 235.994 456.975 275.902 488.554C279.218 486.816 282.079 485.666 284.553 483.955C319.006 460.144 354.851 438.658 392.005 419.286C403.436 413.323 414.533 406.638 425.269 399.512C432.622 394.619 439.828 389.084 445.831 382.639C468.934 357.852 469.469 325.003 447.716 299.092C439.374 289.158 429.641 280.843 416.378 273.516C417.354 277.808 417.808 280.468 418.557 283.035C421.793 294.105 425.79 305.002 428.25 316.232C434.654 345.351 426.298 370.847 407.086 392.947C375.426 429.393 299.941 462.216 234.537 432.963C220.552 426.706 207.423 419.219 198.652 406.157C181.593 380.794 196.607 347.464 226.368 344.87C233.708 344.228 241.181 345.258 251.717 345.619C246.623 350.646 243.681 353.587 240.7 356.502C228.921 368 224.951 382.185 227.598 398.015C229.697 410.582 236.876 419.928 248.602 425.543C264.364 433.097 281.05 435.022 298.11 432.896C315.463 430.73 332.002 425.449 347.15 416.505C386.898 393.028 396.297 340.552 367.672 304.199C354.142 287.019 337.644 273.93 317.629 265.28C302.522 258.756 286.946 253.221 272.186 246.001C257.867 239.009 243.147 231.95 230.673 222.257C199.321 197.897 194.414 163.056 216.086 130.032C220.472 123.347 225.245 116.877 230.258 110.633C250.313 85.6717 267.159 59.2264 269.859 25C272.333 26.3904 274.164 26.8049 274.913 27.928C286.331 44.8674 298.965 61.1784 308.591 79.0938C321.48 103.092 317.723 117.986 296.813 135.447C283.256 146.771 271.678 159.406 264.712 175.757C254.605 199.448 261.757 221.548 285.275 236.161C283.617 233.34 282.935 231.923 282.012 230.666C269.03 213.072 270.194 194.982 280.488 176.853C291.01 158.323 306.145 144.552 325.985 134.712C317.469 166.077 311.827 196.801 327.697 227.23C337.336 245.707 353.3 266.136 368.849 277.166C368.073 266.925 362.806 259.959 357.979 252.646C353.112 245.266 347.925 237.886 344.529 229.81C338.58 215.652 339.208 200.972 345.706 187.027C350.492 176.759 355.225 166.251 364.557 158.042C365.479 160.034 366.201 161.09 366.469 162.253C375.239 199.421 396.163 228.407 426.365 251.148C444.16 264.545 457.249 281.912 467.704 301.205C472.531 310.109 476.127 319.842 479.002 329.588C484.456 348.092 482.09 366.248 470.726 381.784C462.156 393.509 452.53 405.207 441.112 413.938C423.156 427.669 403.957 440.102 384.09 450.905C347.912 470.599 313.939 493.06 283.924 521.363C282.708 522.567 281.117 523.409 278.844 525Z" fill="#FF7755"/>
<path d="M216.02 326.353C224.723 300.309 248.254 283.811 275.755 285.148C287.093 285.696 298.805 287.942 309.407 291.913C332.684 300.603 344.944 319.093 349.008 342.998C351.16 355.633 346.601 366.649 337.684 375.687C327.59 385.928 315.463 393.041 300.342 399.031C301.251 396.116 301.519 394.645 302.147 393.335C315.798 365.245 303.912 335.15 274.592 323.679C259.083 317.609 243.401 317.596 227.611 322.382C223.961 323.492 220.391 324.856 216.02 326.353Z" fill="#FF7755"/>
</svg>
